{
 "cells": [
  {
   "cell_type": "markdown",
   "metadata": {},
   "source": [
    "This notebook contains code for rendering .png images according to a predefined fsleyes orthographic view, of 3D-FLAIR based MNI normalized nrCBV maps overlayed on a MNI brain regions template. It also uses ffmpeg to make videos of the images."
   ]
  },
  {
   "cell_type": "markdown",
   "metadata": {},
   "source": [
    "1. Specify epi_corrections output directory"
   ]
  },
  {
   "cell_type": "code",
   "execution_count": 3,
   "metadata": {},
   "outputs": [
    {
     "data": {
      "text/plain": [
       "'../../epi_corrections_out_2019_07_02'"
      ]
     },
     "execution_count": 3,
     "metadata": {},
     "output_type": "execute_result"
    }
   ],
   "source": [
    "output_directory_suffix = \"2019_07_02\"\n",
    "# On local file system:\n",
    "corrections_base_directory = \"../../epi_corrections_out_\" + output_directory_suffix\n",
    "# On samba share (remote file sytem):\n",
    "#corrections_base_directory = \"/run/user/1000/gvfs/smb-share:server=192.168.1.207,share=hdd3tb1/data/IVS_EPI_BASELINE/epi_corrections_out_\" + output_directory_suffix\n",
    "corrections_base_directory"
   ]
  },
  {
   "cell_type": "markdown",
   "metadata": {},
   "source": [
    "2. Since nICE introduced files with spaces in their file names, \n",
    "recursively replace spaces in folders and file names.\n",
    "The fsleyes rendering bash command did not accept \n",
    "spaces in file names and directories. "
   ]
  },
  {
   "cell_type": "code",
   "execution_count": 4,
   "metadata": {},
   "outputs": [],
   "source": [
    "from utils import replace_spaces_with_underscore\n",
    "replace_spaces_with_underscore(corrections_base_directory + \"/EPI_raw_DSC\")\n",
    "replace_spaces_with_underscore(corrections_base_directory + \"/EPI_applytopup\")\n",
    "replace_spaces_with_underscore(corrections_base_directory + \"/EPI_applyepic\")"
   ]
  },
  {
   "cell_type": "markdown",
   "metadata": {},
   "source": [
    "3. Find the MNI-normalized, NordicICE intensity Normalized Relative CBV files. Can be done remotely."
   ]
  },
  {
   "cell_type": "code",
   "execution_count": 5,
   "metadata": {},
   "outputs": [],
   "source": [
    "from search import find_cbv_files\n",
    "\n",
    "[raw_cbv_files_e1, \\\n",
    " topup_cbv_files_e1, \\\n",
    " epic_cbv_files_e1, \\\n",
    " raw_cbv_files_e2, \\\n",
    " topup_cbv_files_e2, \\\n",
    " epic_cbv_files_e2] = find_cbv_files(corrections_base_directory)"
   ]
  },
  {
   "cell_type": "code",
   "execution_count": 6,
   "metadata": {},
   "outputs": [
    {
     "name": "stdout",
     "output_type": "stream",
     "text": [
      "Equal number of detected CBV files for raw (uncorrected), topup, and epic correction methods: True\n",
      "Number of subject CBVs: 45\n"
     ]
    }
   ],
   "source": [
    "# A check\n",
    "print(\"Equal number of detected CBV files for raw (uncorrected), topup, and epic correction methods: %r\" % \\\n",
    "      (len(raw_cbv_files_e1) == \\\n",
    "       len(raw_cbv_files_e2) == \\\n",
    "       len(topup_cbv_files_e1) == \\\n",
    "       len(topup_cbv_files_e2) == \\\n",
    "       len(epic_cbv_files_e1) == \\\n",
    "       len(epic_cbv_files_e2)))\n",
    "print(\"Number of subject CBVs: %i\" % len(raw_cbv_files_e1))"
   ]
  },
  {
   "cell_type": "markdown",
   "metadata": {},
   "source": [
    "4. Find the corresponding MNI label files \n",
    "(should perhaps be identical to each other, but just to make sure..)"
   ]
  },
  {
   "cell_type": "code",
   "execution_count": 7,
   "metadata": {},
   "outputs": [],
   "source": [
    "from search import find_label_files\n",
    "\n",
    "[raw_label_files_e1, \\\n",
    " topup_label_files_e1, \\\n",
    " epic_label_files_e1, \\\n",
    " raw_label_files_e2, \\\n",
    " topup_label_files_e2, \\\n",
    " epic_label_files_e2] = find_label_files(corrections_base_directory)"
   ]
  },
  {
   "cell_type": "code",
   "execution_count": 8,
   "metadata": {},
   "outputs": [
    {
     "name": "stdout",
     "output_type": "stream",
     "text": [
      "Equal number of detected label files for raw (uncorrected), topup, and epic correction methods: True\n",
      "Number of subject label files: 45\n"
     ]
    }
   ],
   "source": [
    "# A check\n",
    "print(\"Equal number of detected label files for raw (uncorrected), topup, and epic correction methods: %r\" % \\\n",
    "      (len(raw_label_files_e1) == \\\n",
    "       len(raw_label_files_e2) == \\\n",
    "       len(topup_label_files_e1) == \\\n",
    "       len(topup_label_files_e2) == \\\n",
    "       len(epic_label_files_e1) == \\\n",
    "       len(epic_label_files_e2)))\n",
    "print(\"Number of subject label files: %i\" % len(raw_label_files_e1))"
   ]
  },
  {
   "cell_type": "markdown",
   "metadata": {},
   "source": [
    "5. For the raw, topup and epic Gradient Echo (GE) and Spin Echo (SE) nrCBV data + MNI regions file, render .png images in a predefined orthographic view, then make a video. __Note:__ The following cells must run within a fsl X environment"
   ]
  },
  {
   "cell_type": "code",
   "execution_count": 10,
   "metadata": {},
   "outputs": [
    {
     "name": "stdout",
     "output_type": "stream",
     "text": [
      "--Finished rendering volume 0 to .png--\n",
      "--Finished rendering volume 1 to .png--\n",
      "--Finished rendering volume 2 to .png--\n",
      "--Finished rendering volume 3 to .png--\n",
      "--Finished rendering volume 4 to .png--\n",
      "--Finished rendering volume 5 to .png--\n",
      "--Finished rendering volume 6 to .png--\n",
      "--Finished rendering volume 7 to .png--\n",
      "--Finished rendering volume 8 to .png--\n",
      "--Finished rendering volume 9 to .png--\n",
      "--Finished rendering volume 10 to .png--\n",
      "--Finished rendering volume 11 to .png--\n",
      "--Finished rendering volume 12 to .png--\n",
      "--Finished rendering volume 13 to .png--\n",
      "--Finished rendering volume 14 to .png--\n",
      "--Finished rendering volume 15 to .png--\n",
      "--Finished rendering volume 16 to .png--\n",
      "--Finished rendering volume 17 to .png--\n",
      "--Finished rendering volume 18 to .png--\n",
      "--Finished rendering volume 19 to .png--\n",
      "--Finished rendering volume 20 to .png--\n",
      "--Finished rendering volume 21 to .png--\n",
      "--Finished rendering volume 22 to .png--\n",
      "--Finished rendering volume 23 to .png--\n",
      "--Finished rendering volume 24 to .png--\n",
      "--Finished rendering volume 25 to .png--\n",
      "--Finished rendering volume 26 to .png--\n",
      "--Finished rendering volume 27 to .png--\n",
      "--Finished rendering volume 28 to .png--\n",
      "--Finished rendering volume 29 to .png--\n",
      "--Finished rendering volume 30 to .png--\n",
      "--Finished rendering volume 31 to .png--\n",
      "--Finished rendering volume 32 to .png--\n",
      "--Finished rendering volume 33 to .png--\n",
      "--Finished rendering volume 34 to .png--\n",
      "--Finished rendering volume 35 to .png--\n",
      "--Finished rendering volume 36 to .png--\n",
      "--Finished rendering volume 37 to .png--\n",
      "--Finished rendering volume 38 to .png--\n",
      "--Finished rendering volume 39 to .png--\n",
      "--Finished rendering volume 40 to .png--\n",
      "--Finished rendering volume 41 to .png--\n",
      "--Finished rendering volume 42 to .png--\n",
      "--Finished rendering volume 43 to .png--\n",
      "--Finished rendering volume 44 to .png--\n",
      "--Finished rendering pngs to video--\n",
      "--Finished rendering volume 0 to .png--\n",
      "--Finished rendering volume 1 to .png--\n",
      "--Finished rendering volume 2 to .png--\n",
      "--Finished rendering volume 3 to .png--\n",
      "--Finished rendering volume 4 to .png--\n",
      "--Finished rendering volume 5 to .png--\n",
      "--Finished rendering volume 6 to .png--\n",
      "--Finished rendering volume 7 to .png--\n",
      "--Finished rendering volume 8 to .png--\n",
      "--Finished rendering volume 9 to .png--\n",
      "--Finished rendering volume 10 to .png--\n",
      "--Finished rendering volume 11 to .png--\n",
      "--Finished rendering volume 12 to .png--\n",
      "--Finished rendering volume 13 to .png--\n",
      "--Finished rendering volume 14 to .png--\n",
      "--Finished rendering volume 15 to .png--\n",
      "--Finished rendering volume 16 to .png--\n",
      "--Finished rendering volume 17 to .png--\n",
      "--Finished rendering volume 18 to .png--\n",
      "--Finished rendering volume 19 to .png--\n",
      "--Finished rendering volume 20 to .png--\n",
      "--Finished rendering volume 21 to .png--\n",
      "--Finished rendering volume 22 to .png--\n",
      "--Finished rendering volume 23 to .png--\n",
      "--Finished rendering volume 24 to .png--\n",
      "--Finished rendering volume 25 to .png--\n",
      "--Finished rendering volume 26 to .png--\n",
      "--Finished rendering volume 27 to .png--\n",
      "--Finished rendering volume 28 to .png--\n",
      "--Finished rendering volume 29 to .png--\n",
      "--Finished rendering volume 30 to .png--\n",
      "--Finished rendering volume 31 to .png--\n",
      "--Finished rendering volume 32 to .png--\n",
      "--Finished rendering volume 33 to .png--\n",
      "--Finished rendering volume 34 to .png--\n",
      "--Finished rendering volume 35 to .png--\n",
      "--Finished rendering volume 36 to .png--\n",
      "--Finished rendering volume 37 to .png--\n",
      "--Finished rendering volume 38 to .png--\n",
      "--Finished rendering volume 39 to .png--\n",
      "--Finished rendering volume 40 to .png--\n",
      "--Finished rendering volume 41 to .png--\n",
      "--Finished rendering volume 42 to .png--\n",
      "--Finished rendering volume 43 to .png--\n",
      "--Finished rendering volume 44 to .png--\n",
      "--Finished rendering pngs to video--\n",
      "--Finished rendering volume 0 to .png--\n",
      "--Finished rendering volume 1 to .png--\n",
      "--Finished rendering volume 2 to .png--\n",
      "--Finished rendering volume 3 to .png--\n",
      "--Finished rendering volume 4 to .png--\n",
      "--Finished rendering volume 5 to .png--\n",
      "--Finished rendering volume 6 to .png--\n",
      "--Finished rendering volume 7 to .png--\n",
      "--Finished rendering volume 8 to .png--\n",
      "--Finished rendering volume 9 to .png--\n",
      "--Finished rendering volume 10 to .png--\n",
      "--Finished rendering volume 11 to .png--\n",
      "--Finished rendering volume 12 to .png--\n",
      "--Finished rendering volume 13 to .png--\n",
      "--Finished rendering volume 14 to .png--\n",
      "--Finished rendering volume 15 to .png--\n",
      "--Finished rendering volume 16 to .png--\n",
      "--Finished rendering volume 17 to .png--\n",
      "--Finished rendering volume 18 to .png--\n",
      "--Finished rendering volume 19 to .png--\n",
      "--Finished rendering volume 20 to .png--\n",
      "--Finished rendering volume 21 to .png--\n",
      "--Finished rendering volume 22 to .png--\n",
      "--Finished rendering volume 23 to .png--\n",
      "--Finished rendering volume 24 to .png--\n",
      "--Finished rendering volume 25 to .png--\n",
      "--Finished rendering volume 26 to .png--\n",
      "--Finished rendering volume 27 to .png--\n",
      "--Finished rendering volume 28 to .png--\n",
      "--Finished rendering volume 29 to .png--\n",
      "--Finished rendering volume 30 to .png--\n",
      "--Finished rendering volume 31 to .png--\n",
      "--Finished rendering volume 32 to .png--\n",
      "--Finished rendering volume 33 to .png--\n",
      "--Finished rendering volume 34 to .png--\n",
      "--Finished rendering volume 35 to .png--\n",
      "--Finished rendering volume 36 to .png--\n",
      "--Finished rendering volume 37 to .png--\n",
      "--Finished rendering volume 38 to .png--\n",
      "--Finished rendering volume 39 to .png--\n",
      "--Finished rendering volume 40 to .png--\n",
      "--Finished rendering volume 41 to .png--\n",
      "--Finished rendering volume 42 to .png--\n",
      "--Finished rendering volume 43 to .png--\n",
      "--Finished rendering volume 44 to .png--\n",
      "--Finished rendering pngs to video--\n",
      "--Finished rendering volume 0 to .png--\n",
      "--Finished rendering volume 1 to .png--\n",
      "--Finished rendering volume 2 to .png--\n",
      "--Finished rendering volume 3 to .png--\n",
      "--Finished rendering volume 4 to .png--\n",
      "--Finished rendering volume 5 to .png--\n",
      "--Finished rendering volume 6 to .png--\n",
      "--Finished rendering volume 7 to .png--\n",
      "--Finished rendering volume 8 to .png--\n",
      "--Finished rendering volume 9 to .png--\n",
      "--Finished rendering volume 10 to .png--\n",
      "--Finished rendering volume 11 to .png--\n",
      "--Finished rendering volume 12 to .png--\n",
      "--Finished rendering volume 13 to .png--\n",
      "--Finished rendering volume 14 to .png--\n",
      "--Finished rendering volume 15 to .png--\n",
      "--Finished rendering volume 16 to .png--\n",
      "--Finished rendering volume 17 to .png--\n",
      "--Finished rendering volume 18 to .png--\n",
      "--Finished rendering volume 19 to .png--\n",
      "--Finished rendering volume 20 to .png--\n",
      "--Finished rendering volume 21 to .png--\n",
      "--Finished rendering volume 22 to .png--\n",
      "--Finished rendering volume 23 to .png--\n",
      "--Finished rendering volume 24 to .png--\n",
      "--Finished rendering volume 25 to .png--\n",
      "--Finished rendering volume 26 to .png--\n",
      "--Finished rendering volume 27 to .png--\n",
      "--Finished rendering volume 28 to .png--\n",
      "--Finished rendering volume 29 to .png--\n",
      "--Finished rendering volume 30 to .png--\n",
      "--Finished rendering volume 31 to .png--\n",
      "--Finished rendering volume 32 to .png--\n",
      "--Finished rendering volume 33 to .png--\n",
      "--Finished rendering volume 34 to .png--\n",
      "--Finished rendering volume 35 to .png--\n",
      "--Finished rendering volume 36 to .png--\n",
      "--Finished rendering volume 37 to .png--\n",
      "--Finished rendering volume 38 to .png--\n",
      "--Finished rendering volume 39 to .png--\n",
      "--Finished rendering volume 40 to .png--\n",
      "--Finished rendering volume 41 to .png--\n",
      "--Finished rendering volume 42 to .png--\n",
      "--Finished rendering volume 43 to .png--\n",
      "--Finished rendering volume 44 to .png--\n",
      "--Finished rendering pngs to video--\n",
      "--Finished rendering volume 0 to .png--\n",
      "--Finished rendering volume 1 to .png--\n",
      "--Finished rendering volume 2 to .png--\n",
      "--Finished rendering volume 3 to .png--\n",
      "--Finished rendering volume 4 to .png--\n",
      "--Finished rendering volume 5 to .png--\n",
      "--Finished rendering volume 6 to .png--\n",
      "--Finished rendering volume 7 to .png--\n",
      "--Finished rendering volume 8 to .png--\n",
      "--Finished rendering volume 9 to .png--\n",
      "--Finished rendering volume 10 to .png--\n",
      "--Finished rendering volume 11 to .png--\n",
      "--Finished rendering volume 12 to .png--\n",
      "--Finished rendering volume 13 to .png--\n",
      "--Finished rendering volume 14 to .png--\n",
      "--Finished rendering volume 15 to .png--\n",
      "--Finished rendering volume 16 to .png--\n",
      "--Finished rendering volume 17 to .png--\n",
      "--Finished rendering volume 18 to .png--\n",
      "--Finished rendering volume 19 to .png--\n",
      "--Finished rendering volume 20 to .png--\n",
      "--Finished rendering volume 21 to .png--\n",
      "--Finished rendering volume 22 to .png--\n",
      "--Finished rendering volume 23 to .png--\n",
      "--Finished rendering volume 24 to .png--\n",
      "--Finished rendering volume 25 to .png--\n",
      "--Finished rendering volume 26 to .png--\n",
      "--Finished rendering volume 27 to .png--\n",
      "--Finished rendering volume 28 to .png--\n",
      "--Finished rendering volume 29 to .png--\n",
      "--Finished rendering volume 30 to .png--\n",
      "--Finished rendering volume 31 to .png--\n",
      "--Finished rendering volume 32 to .png--\n",
      "--Finished rendering volume 33 to .png--\n",
      "--Finished rendering volume 34 to .png--\n",
      "--Finished rendering volume 35 to .png--\n",
      "--Finished rendering volume 36 to .png--\n",
      "--Finished rendering volume 37 to .png--\n",
      "--Finished rendering volume 38 to .png--\n",
      "--Finished rendering volume 39 to .png--\n",
      "--Finished rendering volume 40 to .png--\n",
      "--Finished rendering volume 41 to .png--\n",
      "--Finished rendering volume 42 to .png--\n",
      "--Finished rendering volume 43 to .png--\n",
      "--Finished rendering volume 44 to .png--\n",
      "--Finished rendering pngs to video--\n",
      "--Finished rendering volume 0 to .png--\n",
      "--Finished rendering volume 1 to .png--\n",
      "--Finished rendering volume 2 to .png--\n",
      "--Finished rendering volume 3 to .png--\n",
      "--Finished rendering volume 4 to .png--\n",
      "--Finished rendering volume 5 to .png--\n",
      "--Finished rendering volume 6 to .png--\n",
      "--Finished rendering volume 7 to .png--\n",
      "--Finished rendering volume 8 to .png--\n",
      "--Finished rendering volume 9 to .png--\n",
      "--Finished rendering volume 10 to .png--\n",
      "--Finished rendering volume 11 to .png--\n",
      "--Finished rendering volume 12 to .png--\n",
      "--Finished rendering volume 13 to .png--\n",
      "--Finished rendering volume 14 to .png--\n",
      "--Finished rendering volume 15 to .png--\n",
      "--Finished rendering volume 16 to .png--\n",
      "--Finished rendering volume 17 to .png--\n",
      "--Finished rendering volume 18 to .png--\n",
      "--Finished rendering volume 19 to .png--\n",
      "--Finished rendering volume 20 to .png--\n",
      "--Finished rendering volume 21 to .png--\n",
      "--Finished rendering volume 22 to .png--\n",
      "--Finished rendering volume 23 to .png--\n",
      "--Finished rendering volume 24 to .png--\n",
      "--Finished rendering volume 25 to .png--\n",
      "--Finished rendering volume 26 to .png--\n",
      "--Finished rendering volume 27 to .png--\n",
      "--Finished rendering volume 28 to .png--\n",
      "--Finished rendering volume 29 to .png--\n",
      "--Finished rendering volume 30 to .png--\n",
      "--Finished rendering volume 31 to .png--\n",
      "--Finished rendering volume 32 to .png--\n",
      "--Finished rendering volume 33 to .png--\n",
      "--Finished rendering volume 34 to .png--\n",
      "--Finished rendering volume 35 to .png--\n",
      "--Finished rendering volume 36 to .png--\n",
      "--Finished rendering volume 37 to .png--\n",
      "--Finished rendering volume 38 to .png--\n",
      "--Finished rendering volume 39 to .png--\n",
      "--Finished rendering volume 40 to .png--\n",
      "--Finished rendering volume 41 to .png--\n",
      "--Finished rendering volume 42 to .png--\n",
      "--Finished rendering volume 43 to .png--\n",
      "--Finished rendering volume 44 to .png--\n",
      "--Finished rendering pngs to video--\n"
     ]
    },
    {
     "name": "stderr",
     "output_type": "stream",
     "text": [
      "ffmpeg version 3.4.6-0ubuntu0.18.04.1 Copyright (c) 2000-2019 the FFmpeg developers\n",
      "  built with gcc 7 (Ubuntu 7.3.0-16ubuntu3)\n",
      "  configuration: --prefix=/usr --extra-version=0ubuntu0.18.04.1 --toolchain=hardened --libdir=/usr/lib/x86_64-linux-gnu --incdir=/usr/include/x86_64-linux-gnu --enable-gpl --disable-stripping --enable-avresample --enable-avisynth --enable-gnutls --enable-ladspa --enable-libass --enable-libbluray --enable-libbs2b --enable-libcaca --enable-libcdio --enable-libflite --enable-libfontconfig --enable-libfreetype --enable-libfribidi --enable-libgme --enable-libgsm --enable-libmp3lame --enable-libmysofa --enable-libopenjpeg --enable-libopenmpt --enable-libopus --enable-libpulse --enable-librubberband --enable-librsvg --enable-libshine --enable-libsnappy --enable-libsoxr --enable-libspeex --enable-libssh --enable-libtheora --enable-libtwolame --enable-libvorbis --enable-libvpx --enable-libwavpack --enable-libwebp --enable-libx265 --enable-libxml2 --enable-libxvid --enable-libzmq --enable-libzvbi --enable-omx --enable-openal --enable-opengl --enable-sdl2 --enable-libdc1394 --enable-libdrm --enable-libiec61883 --enable-chromaprint --enable-frei0r --enable-libopencv --enable-libx264 --enable-shared\n",
      "  libavutil      55. 78.100 / 55. 78.100\n",
      "  libavcodec     57.107.100 / 57.107.100\n",
      "  libavformat    57. 83.100 / 57. 83.100\n",
      "  libavdevice    57. 10.100 / 57. 10.100\n",
      "  libavfilter     6.107.100 /  6.107.100\n",
      "  libavresample   3.  7.  0 /  3.  7.  0\n",
      "  libswscale      4.  8.100 /  4.  8.100\n",
      "  libswresample   2.  9.100 /  2.  9.100\n",
      "  libpostproc    54.  7.100 / 54.  7.100\n",
      "Input #0, image2, from '/home/ivar/Desktop/temp/render/EPI_raw_DSC/e1/output_%03d.png':\n",
      "  Duration: 00:00:45.00, start: 0.000000, bitrate: N/A\n",
      "    Stream #0:0: Video: png, rgba(pc), 798x600 [SAR 3937:3937 DAR 133:100], 1 fps, 1 tbr, 1 tbn, 1 tbc\n",
      "Stream mapping:\n",
      "  Stream #0:0 -> #0:0 (png (native) -> h264 (libx264))\n",
      "Press [q] to stop, [?] for help\n",
      "[libx264 @ 0x5645f2255ac0] using SAR=1/1\n",
      "[libx264 @ 0x5645f2255ac0] using cpu capabilities: MMX2 SSE2Fast SSSE3 SSE4.2 AVX FMA3 BMI2 AVX2\n",
      "[libx264 @ 0x5645f2255ac0] profile High, level 4.0\n",
      "[libx264 @ 0x5645f2255ac0] 264 - core 152 r2854 e9a5903 - H.264/MPEG-4 AVC codec - Copyleft 2003-2017 - http://www.videolan.org/x264.html - options: cabac=1 ref=5 deblock=1:0:0 analyse=0x3:0x113 me=hex subme=8 psy=1 psy_rd=1.00:0.00 mixed_ref=1 me_range=16 chroma_me=1 trellis=2 8x8dct=1 cqm=0 deadzone=21,11 fast_pskip=1 chroma_qp_offset=-2 threads=12 lookahead_threads=2 sliced_threads=0 nr=0 decimate=1 interlaced=0 bluray_compat=0 constrained_intra=0 bframes=3 b_pyramid=2 b_adapt=1 b_bias=0 direct=3 weightb=1 open_gop=0 weightp=2 keyint=250 keyint_min=1 scenecut=40 intra_refresh=0 rc_lookahead=50 rc=crf mbtree=1 crf=1.0 qcomp=0.60 qpmin=0 qpmax=69 qpstep=4 ip_ratio=1.40 aq=1:1.00\n",
      "Output #0, mp4, to '/home/ivar/Desktop/temp/render/EPI_raw_DSC/e1/video.mp4':\n",
      "  Metadata:\n",
      "    encoder         : Lavf57.83.100\n",
      "    Stream #0:0: Video: h264 (libx264) (avc1 / 0x31637661), yuv420p, 798x600 [SAR 1:1 DAR 133:100], q=-1--1, 1 fps, 16384 tbn, 1 tbc\n",
      "    Metadata:\n",
      "      encoder         : Lavc57.107.100 libx264\n",
      "    Side data:\n",
      "      cpb: bitrate max/min/avg: 0/0/0 buffer size: 0 vbv_delay: -1\n",
      "frame=   45 fps=5.4 q=-1.0 L10000000000000000000000000000000size=    3890kB time=00:00:42.00 bitrate= 758.8kbits/s speed=5.01x    \n",
      "video:3889kB audio:0kB subtitle:0kB other streams:0kB global headers:0kB muxing overhead: 0.034829%\n",
      "[libx264 @ 0x5645f2255ac0] frame I:5     Avg QP: 0.71  size: 96953\n",
      "[libx264 @ 0x5645f2255ac0] frame P:15    Avg QP: 1.07  size: 89558\n",
      "[libx264 @ 0x5645f2255ac0] frame B:25    Avg QP: 1.60  size: 86139\n",
      "[libx264 @ 0x5645f2255ac0] consecutive B-frames: 17.8% 17.8% 20.0% 44.4%\n",
      "[libx264 @ 0x5645f2255ac0] mb I  I16..4: 65.6%  0.1% 34.3%\n",
      "[libx264 @ 0x5645f2255ac0] mb P  I16..4: 12.9%  0.1% 20.7%  P16..4:  5.0%  2.8%  3.8%  0.0%  0.0%    skip:54.6%\n",
      "[libx264 @ 0x5645f2255ac0] mb B  I16..4:  0.8%  0.1% 16.0%  B16..8:  5.9%  2.3%  5.5%  direct: 2.9%  skip:66.6%  L0:60.5% L1:30.3% BI: 9.2%\n",
      "[libx264 @ 0x5645f2255ac0] 8x8 transform intra:0.4% inter:2.4%\n",
      "[libx264 @ 0x5645f2255ac0] direct mvs  spatial:80.0% temporal:20.0%\n",
      "[libx264 @ 0x5645f2255ac0] coded y,uvDC,uvAC intra: 56.1% 55.2% 55.1% inter: 11.9% 14.9% 14.9%\n",
      "[libx264 @ 0x5645f2255ac0] i16 v,h,dc,p: 90%  6%  4%  0%\n",
      "[libx264 @ 0x5645f2255ac0] i8 v,h,dc,ddl,ddr,vr,hd,vl,hu: 45% 19% 27%  3%  1%  2%  1%  0%  1%\n",
      "[libx264 @ 0x5645f2255ac0] i4 v,h,dc,ddl,ddr,vr,hd,vl,hu: 45% 32% 10%  2%  3%  2%  2%  2%  2%\n",
      "[libx264 @ 0x5645f2255ac0] i8c dc,h,v,p: 66% 15% 13%  6%\n",
      "[libx264 @ 0x5645f2255ac0] Weighted P-Frames: Y:13.3% UV:6.7%\n",
      "[libx264 @ 0x5645f2255ac0] ref P L0: 40.5%  3.8% 24.3% 20.3% 10.1%  1.0%\n",
      "[libx264 @ 0x5645f2255ac0] ref B L0: 55.9% 25.2% 14.6%  4.2%\n",
      "[libx264 @ 0x5645f2255ac0] ref B L1: 85.0% 15.0%\n",
      "[libx264 @ 0x5645f2255ac0] kb/s:707.84\n",
      "bash: line 104: 1: command not found\n",
      "ffmpeg version 3.4.6-0ubuntu0.18.04.1 Copyright (c) 2000-2019 the FFmpeg developers\n",
      "  built with gcc 7 (Ubuntu 7.3.0-16ubuntu3)\n",
      "  configuration: --prefix=/usr --extra-version=0ubuntu0.18.04.1 --toolchain=hardened --libdir=/usr/lib/x86_64-linux-gnu --incdir=/usr/include/x86_64-linux-gnu --enable-gpl --disable-stripping --enable-avresample --enable-avisynth --enable-gnutls --enable-ladspa --enable-libass --enable-libbluray --enable-libbs2b --enable-libcaca --enable-libcdio --enable-libflite --enable-libfontconfig --enable-libfreetype --enable-libfribidi --enable-libgme --enable-libgsm --enable-libmp3lame --enable-libmysofa --enable-libopenjpeg --enable-libopenmpt --enable-libopus --enable-libpulse --enable-librubberband --enable-librsvg --enable-libshine --enable-libsnappy --enable-libsoxr --enable-libspeex --enable-libssh --enable-libtheora --enable-libtwolame --enable-libvorbis --enable-libvpx --enable-libwavpack --enable-libwebp --enable-libx265 --enable-libxml2 --enable-libxvid --enable-libzmq --enable-libzvbi --enable-omx --enable-openal --enable-opengl --enable-sdl2 --enable-libdc1394 --enable-libdrm --enable-libiec61883 --enable-chromaprint --enable-frei0r --enable-libopencv --enable-libx264 --enable-shared\n",
      "  libavutil      55. 78.100 / 55. 78.100\n",
      "  libavcodec     57.107.100 / 57.107.100\n",
      "  libavformat    57. 83.100 / 57. 83.100\n",
      "  libavdevice    57. 10.100 / 57. 10.100\n",
      "  libavfilter     6.107.100 /  6.107.100\n",
      "  libavresample   3.  7.  0 /  3.  7.  0\n",
      "  libswscale      4.  8.100 /  4.  8.100\n",
      "  libswresample   2.  9.100 /  2.  9.100\n",
      "  libpostproc    54.  7.100 / 54.  7.100\n",
      "Input #0, image2, from '/home/ivar/Desktop/temp/render/EPI_raw_DSC/e2/output_%03d.png':\n",
      "  Duration: 00:00:45.00, start: 0.000000, bitrate: N/A\n",
      "    Stream #0:0: Video: png, rgba(pc), 798x600 [SAR 3937:3937 DAR 133:100], 1 fps, 1 tbr, 1 tbn, 1 tbc\n",
      "Stream mapping:\n",
      "  Stream #0:0 -> #0:0 (png (native) -> h264 (libx264))\n",
      "Press [q] to stop, [?] for help\n",
      "[libx264 @ 0x558493d00800] using SAR=1/1\n",
      "[libx264 @ 0x558493d00800] using cpu capabilities: MMX2 SSE2Fast SSSE3 SSE4.2 AVX FMA3 BMI2 AVX2\n",
      "[libx264 @ 0x558493d00800] profile High, level 4.0\n",
      "[libx264 @ 0x558493d00800] 264 - core 152 r2854 e9a5903 - H.264/MPEG-4 AVC codec - Copyleft 2003-2017 - http://www.videolan.org/x264.html - options: cabac=1 ref=5 deblock=1:0:0 analyse=0x3:0x113 me=hex subme=8 psy=1 psy_rd=1.00:0.00 mixed_ref=1 me_range=16 chroma_me=1 trellis=2 8x8dct=1 cqm=0 deadzone=21,11 fast_pskip=1 chroma_qp_offset=-2 threads=12 lookahead_threads=2 sliced_threads=0 nr=0 decimate=1 interlaced=0 bluray_compat=0 constrained_intra=0 bframes=3 b_pyramid=2 b_adapt=1 b_bias=0 direct=3 weightb=1 open_gop=0 weightp=2 keyint=250 keyint_min=1 scenecut=40 intra_refresh=0 rc_lookahead=50 rc=crf mbtree=1 crf=1.0 qcomp=0.60 qpmin=0 qpmax=69 qpstep=4 ip_ratio=1.40 aq=1:1.00\n",
      "Output #0, mp4, to '/home/ivar/Desktop/temp/render/EPI_raw_DSC/e2/video.mp4':\n",
      "  Metadata:\n",
      "    encoder         : Lavf57.83.100\n",
      "    Stream #0:0: Video: h264 (libx264) (avc1 / 0x31637661), yuv420p, 798x600 [SAR 1:1 DAR 133:100], q=-1--1, 1 fps, 16384 tbn, 1 tbc\n",
      "    Metadata:\n",
      "      encoder         : Lavc57.107.100 libx264\n",
      "    Side data:\n",
      "      cpb: bitrate max/min/avg: 0/0/0 buffer size: 0 vbv_delay: -1\n",
      "frame=   45 fps=6.3 q=-1.0 L10000000000000000000000000000000size=    3477kB time=00:00:42.00 bitrate= 678.2kbits/s speed=5.89x    \n",
      "video:3476kB audio:0kB subtitle:0kB other streams:0kB global headers:0kB muxing overhead: 0.039867%\n",
      "[libx264 @ 0x558493d00800] frame I:1     Avg QP: 0.24  size: 88163\n",
      "[libx264 @ 0x558493d00800] frame P:16    Avg QP: 0.66  size: 81525\n",
      "[libx264 @ 0x558493d00800] frame B:28    Avg QP: 1.08  size: 77360\n",
      "[libx264 @ 0x558493d00800] consecutive B-frames:  8.9% 17.8% 20.0% 53.3%\n",
      "[libx264 @ 0x558493d00800] mb I  I16..4: 66.8%  0.2% 33.0%\n",
      "[libx264 @ 0x558493d00800] mb P  I16..4: 16.3%  0.3% 15.1%  P16..4:  9.4%  4.5%  5.6%  0.0%  0.0%    skip:48.8%\n",
      "[libx264 @ 0x558493d00800] mb B  I16..4:  2.3%  0.1% 14.2%  B16..8:  7.6%  3.4%  6.2%  direct: 4.2%  skip:62.1%  L0:61.7% L1:26.9% BI:11.4%\n",
      "[libx264 @ 0x558493d00800] 8x8 transform intra:0.7% inter:3.6%\n",
      "[libx264 @ 0x558493d00800] direct mvs  spatial:78.6% temporal:21.4%\n",
      "[libx264 @ 0x558493d00800] coded y,uvDC,uvAC intra: 58.0% 59.4% 59.3% inter: 18.3% 21.6% 21.5%\n",
      "[libx264 @ 0x558493d00800] i16 v,h,dc,p: 85% 12%  2%  0%\n",
      "[libx264 @ 0x558493d00800] i8 v,h,dc,ddl,ddr,vr,hd,vl,hu: 38% 21% 34%  1%  1%  2%  1%  1%  1%\n",
      "[libx264 @ 0x558493d00800] i4 v,h,dc,ddl,ddr,vr,hd,vl,hu: 46% 31% 10%  2%  3%  2%  2%  2%  2%\n",
      "[libx264 @ 0x558493d00800] i8c dc,h,v,p: 58% 19% 16%  7%\n",
      "[libx264 @ 0x558493d00800] Weighted P-Frames: Y:12.5% UV:12.5%\n",
      "[libx264 @ 0x558493d00800] ref P L0: 23.9%  4.7% 25.9% 20.6% 22.1%  2.8%\n",
      "[libx264 @ 0x558493d00800] ref B L0: 46.3% 28.4% 19.8%  5.5%\n",
      "[libx264 @ 0x558493d00800] ref B L1: 93.0%  7.0%\n",
      "[libx264 @ 0x558493d00800] kb/s:632.65\n",
      "bash: line 107: 1: command not found\n",
      "ffmpeg version 3.4.6-0ubuntu0.18.04.1 Copyright (c) 2000-2019 the FFmpeg developers\n",
      "  built with gcc 7 (Ubuntu 7.3.0-16ubuntu3)\n",
      "  configuration: --prefix=/usr --extra-version=0ubuntu0.18.04.1 --toolchain=hardened --libdir=/usr/lib/x86_64-linux-gnu --incdir=/usr/include/x86_64-linux-gnu --enable-gpl --disable-stripping --enable-avresample --enable-avisynth --enable-gnutls --enable-ladspa --enable-libass --enable-libbluray --enable-libbs2b --enable-libcaca --enable-libcdio --enable-libflite --enable-libfontconfig --enable-libfreetype --enable-libfribidi --enable-libgme --enable-libgsm --enable-libmp3lame --enable-libmysofa --enable-libopenjpeg --enable-libopenmpt --enable-libopus --enable-libpulse --enable-librubberband --enable-librsvg --enable-libshine --enable-libsnappy --enable-libsoxr --enable-libspeex --enable-libssh --enable-libtheora --enable-libtwolame --enable-libvorbis --enable-libvpx --enable-libwavpack --enable-libwebp --enable-libx265 --enable-libxml2 --enable-libxvid --enable-libzmq --enable-libzvbi --enable-omx --enable-openal --enable-opengl --enable-sdl2 --enable-libdc1394 --enable-libdrm --enable-libiec61883 --enable-chromaprint --enable-frei0r --enable-libopencv --enable-libx264 --enable-shared\n",
      "  libavutil      55. 78.100 / 55. 78.100\n",
      "  libavcodec     57.107.100 / 57.107.100\n",
      "  libavformat    57. 83.100 / 57. 83.100\n",
      "  libavdevice    57. 10.100 / 57. 10.100\n",
      "  libavfilter     6.107.100 /  6.107.100\n",
      "  libavresample   3.  7.  0 /  3.  7.  0\n",
      "  libswscale      4.  8.100 /  4.  8.100\n",
      "  libswresample   2.  9.100 /  2.  9.100\n",
      "  libpostproc    54.  7.100 / 54.  7.100\n",
      "Input #0, image2, from '/home/ivar/Desktop/temp/render/EPI_applytopup/e1/output_%03d.png':\n",
      "  Duration: 00:00:45.00, start: 0.000000, bitrate: N/A\n",
      "    Stream #0:0: Video: png, rgba(pc), 798x600 [SAR 3937:3937 DAR 133:100], 1 fps, 1 tbr, 1 tbn, 1 tbc\n",
      "Stream mapping:\n",
      "  Stream #0:0 -> #0:0 (png (native) -> h264 (libx264))\n",
      "Press [q] to stop, [?] for help\n",
      "[libx264 @ 0x5584a062a080] using SAR=1/1\n",
      "[libx264 @ 0x5584a062a080] using cpu capabilities: MMX2 SSE2Fast SSSE3 SSE4.2 AVX FMA3 BMI2 AVX2\n",
      "[libx264 @ 0x5584a062a080] profile High, level 4.0\n",
      "[libx264 @ 0x5584a062a080] 264 - core 152 r2854 e9a5903 - H.264/MPEG-4 AVC codec - Copyleft 2003-2017 - http://www.videolan.org/x264.html - options: cabac=1 ref=5 deblock=1:0:0 analyse=0x3:0x113 me=hex subme=8 psy=1 psy_rd=1.00:0.00 mixed_ref=1 me_range=16 chroma_me=1 trellis=2 8x8dct=1 cqm=0 deadzone=21,11 fast_pskip=1 chroma_qp_offset=-2 threads=12 lookahead_threads=2 sliced_threads=0 nr=0 decimate=1 interlaced=0 bluray_compat=0 constrained_intra=0 bframes=3 b_pyramid=2 b_adapt=1 b_bias=0 direct=3 weightb=1 open_gop=0 weightp=2 keyint=250 keyint_min=1 scenecut=40 intra_refresh=0 rc_lookahead=50 rc=crf mbtree=1 crf=1.0 qcomp=0.60 qpmin=0 qpmax=69 qpstep=4 ip_ratio=1.40 aq=1:1.00\n",
      "Output #0, mp4, to '/home/ivar/Desktop/temp/render/EPI_applytopup/e1/video.mp4':\n",
      "  Metadata:\n",
      "    encoder         : Lavf57.83.100\n",
      "    Stream #0:0: Video: h264 (libx264) (avc1 / 0x31637661), yuv420p, 798x600 [SAR 1:1 DAR 133:100], q=-1--1, 1 fps, 16384 tbn, 1 tbc\n",
      "    Metadata:\n",
      "      encoder         : Lavc57.107.100 libx264\n",
      "    Side data:\n",
      "      cpb: bitrate max/min/avg: 0/0/0 buffer size: 0 vbv_delay: -1\n",
      "frame=   45 fps=9.1 q=-1.0 L10000000000000000000000000000000size=    3921kB time=00:00:42.00 bitrate= 764.7kbits/s speed=8.46x    \n",
      "video:3919kB audio:0kB subtitle:0kB other streams:0kB global headers:0kB muxing overhead: 0.034259%\n",
      "[libx264 @ 0x5584a062a080] frame I:4     Avg QP: 1.00  size:106551\n",
      "[libx264 @ 0x5584a062a080] frame P:19    Avg QP: 0.84  size: 86067\n",
      "[libx264 @ 0x5584a062a080] frame B:22    Avg QP: 1.41  size: 88700\n",
      "[libx264 @ 0x5584a062a080] consecutive B-frames: 24.4% 17.8% 40.0% 17.8%\n",
      "[libx264 @ 0x5584a062a080] mb I  I16..4: 65.0%  0.1% 34.9%\n",
      "[libx264 @ 0x5584a062a080] mb P  I16..4: 21.6%  0.2% 18.0%  P16..4:  7.3%  3.2%  5.0%  0.0%  0.0%    skip:44.7%\n",
      "[libx264 @ 0x5584a062a080] mb B  I16..4:  0.9%  0.1% 16.6%  B16..8:  8.1%  2.3%  5.4%  direct: 3.4%  skip:63.3%  L0:64.7% L1:27.6% BI: 7.7%\n",
      "[libx264 @ 0x5584a062a080] 8x8 transform intra:0.3% inter:2.8%\n",
      "[libx264 @ 0x5584a062a080] direct mvs  spatial:81.8% temporal:18.2%\n",
      "[libx264 @ 0x5584a062a080] coded y,uvDC,uvAC intra: 50.0% 50.5% 50.5% inter: 14.0% 17.4% 17.3%\n",
      "[libx264 @ 0x5584a062a080] i16 v,h,dc,p: 92%  6%  2%  0%\n",
      "[libx264 @ 0x5584a062a080] i8 v,h,dc,ddl,ddr,vr,hd,vl,hu: 46% 21% 21%  2%  2%  1%  2%  3%  3%\n",
      "[libx264 @ 0x5584a062a080] i4 v,h,dc,ddl,ddr,vr,hd,vl,hu: 44% 31% 10%  2%  3%  2%  2%  2%  2%\n",
      "[libx264 @ 0x5584a062a080] i8c dc,h,v,p: 68% 14% 13%  5%\n",
      "[libx264 @ 0x5584a062a080] Weighted P-Frames: Y:26.3% UV:0.0%\n",
      "[libx264 @ 0x5584a062a080] ref P L0: 21.9%  3.5% 29.2% 19.8% 18.5%  5.8%  1.2%\n",
      "[libx264 @ 0x5584a062a080] ref B L0: 34.7% 31.0% 27.7%  6.6%\n",
      "[libx264 @ 0x5584a062a080] ref B L1: 96.7%  3.3%\n",
      "[libx264 @ 0x5584a062a080] kb/s:713.40\n",
      "bash: line 110: 1: command not found\n",
      "ffmpeg version 3.4.6-0ubuntu0.18.04.1 Copyright (c) 2000-2019 the FFmpeg developers\n",
      "  built with gcc 7 (Ubuntu 7.3.0-16ubuntu3)\n",
      "  configuration: --prefix=/usr --extra-version=0ubuntu0.18.04.1 --toolchain=hardened --libdir=/usr/lib/x86_64-linux-gnu --incdir=/usr/include/x86_64-linux-gnu --enable-gpl --disable-stripping --enable-avresample --enable-avisynth --enable-gnutls --enable-ladspa --enable-libass --enable-libbluray --enable-libbs2b --enable-libcaca --enable-libcdio --enable-libflite --enable-libfontconfig --enable-libfreetype --enable-libfribidi --enable-libgme --enable-libgsm --enable-libmp3lame --enable-libmysofa --enable-libopenjpeg --enable-libopenmpt --enable-libopus --enable-libpulse --enable-librubberband --enable-librsvg --enable-libshine --enable-libsnappy --enable-libsoxr --enable-libspeex --enable-libssh --enable-libtheora --enable-libtwolame --enable-libvorbis --enable-libvpx --enable-libwavpack --enable-libwebp --enable-libx265 --enable-libxml2 --enable-libxvid --enable-libzmq --enable-libzvbi --enable-omx --enable-openal --enable-opengl --enable-sdl2 --enable-libdc1394 --enable-libdrm --enable-libiec61883 --enable-chromaprint --enable-frei0r --enable-libopencv --enable-libx264 --enable-shared\n",
      "  libavutil      55. 78.100 / 55. 78.100\n",
      "  libavcodec     57.107.100 / 57.107.100\n",
      "  libavformat    57. 83.100 / 57. 83.100\n",
      "  libavdevice    57. 10.100 / 57. 10.100\n",
      "  libavfilter     6.107.100 /  6.107.100\n",
      "  libavresample   3.  7.  0 /  3.  7.  0\n",
      "  libswscale      4.  8.100 /  4.  8.100\n",
      "  libswresample   2.  9.100 /  2.  9.100\n",
      "  libpostproc    54.  7.100 / 54.  7.100\n",
      "Input #0, image2, from '/home/ivar/Desktop/temp/render/EPI_applytopup/e2/output_%03d.png':\n",
      "  Duration: 00:00:45.00, start: 0.000000, bitrate: N/A\n",
      "    Stream #0:0: Video: png, rgba(pc), 798x600 [SAR 3937:3937 DAR 133:100], 1 fps, 1 tbr, 1 tbn, 1 tbc\n",
      "Stream mapping:\n",
      "  Stream #0:0 -> #0:0 (png (native) -> h264 (libx264))\n",
      "Press [q] to stop, [?] for help\n",
      "[libx264 @ 0x561543947780] using SAR=1/1\n",
      "[libx264 @ 0x561543947780] using cpu capabilities: MMX2 SSE2Fast SSSE3 SSE4.2 AVX FMA3 BMI2 AVX2\n",
      "[libx264 @ 0x561543947780] profile High, level 4.0\n",
      "[libx264 @ 0x561543947780] 264 - core 152 r2854 e9a5903 - H.264/MPEG-4 AVC codec - Copyleft 2003-2017 - http://www.videolan.org/x264.html - options: cabac=1 ref=5 deblock=1:0:0 analyse=0x3:0x113 me=hex subme=8 psy=1 psy_rd=1.00:0.00 mixed_ref=1 me_range=16 chroma_me=1 trellis=2 8x8dct=1 cqm=0 deadzone=21,11 fast_pskip=1 chroma_qp_offset=-2 threads=12 lookahead_threads=2 sliced_threads=0 nr=0 decimate=1 interlaced=0 bluray_compat=0 constrained_intra=0 bframes=3 b_pyramid=2 b_adapt=1 b_bias=0 direct=3 weightb=1 open_gop=0 weightp=2 keyint=250 keyint_min=1 scenecut=40 intra_refresh=0 rc_lookahead=50 rc=crf mbtree=1 crf=1.0 qcomp=0.60 qpmin=0 qpmax=69 qpstep=4 ip_ratio=1.40 aq=1:1.00\n",
      "Output #0, mp4, to '/home/ivar/Desktop/temp/render/EPI_applytopup/e2/video.mp4':\n",
      "  Metadata:\n",
      "    encoder         : Lavf57.83.100\n",
      "    Stream #0:0: Video: h264 (libx264) (avc1 / 0x31637661), yuv420p, 798x600 [SAR 1:1 DAR 133:100], q=-1--1, 1 fps, 16384 tbn, 1 tbc\n",
      "    Metadata:\n",
      "      encoder         : Lavc57.107.100 libx264\n",
      "    Side data:\n",
      "      cpb: bitrate max/min/avg: 0/0/0 buffer size: 0 vbv_delay: -1\n",
      "frame=   45 fps=9.4 q=-1.0 L10000000000000000000000000000000size=    3400kB time=00:00:42.00 bitrate= 663.2kbits/s speed=8.75x    \n",
      "video:3399kB audio:0kB subtitle:0kB other streams:0kB global headers:0kB muxing overhead: 0.040194%\n",
      "[libx264 @ 0x561543947780] frame I:2     Avg QP: 0.40  size: 86887\n",
      "[libx264 @ 0x561543947780] frame P:14    Avg QP: 0.65  size: 78886\n",
      "[libx264 @ 0x561543947780] frame B:29    Avg QP: 1.12  size: 75921\n",
      "[libx264 @ 0x561543947780] consecutive B-frames:  8.9%  4.4% 33.3% 53.3%\n",
      "[libx264 @ 0x561543947780] mb I  I16..4: 66.3%  0.2% 33.5%\n",
      "[libx264 @ 0x561543947780] mb P  I16..4:  5.7%  0.2% 15.2%  P16..4:  8.1%  4.5%  5.4%  0.0%  0.0%    skip:61.0%\n",
      "[libx264 @ 0x561543947780] mb B  I16..4:  1.0%  0.1% 13.2%  B16..8:  6.4%  3.4%  6.0%  direct: 3.6%  skip:66.3%  L0:60.4% L1:28.0% BI:11.6%\n",
      "[libx264 @ 0x561543947780] 8x8 transform intra:0.6% inter:2.5%\n",
      "[libx264 @ 0x561543947780] direct mvs  spatial:79.3% temporal:20.7%\n",
      "[libx264 @ 0x561543947780] coded y,uvDC,uvAC intra: 69.6% 67.7% 67.7% inter: 16.1% 19.2% 19.2%\n",
      "[libx264 @ 0x561543947780] i16 v,h,dc,p: 83% 11%  5%  0%\n",
      "[libx264 @ 0x561543947780] i8 v,h,dc,ddl,ddr,vr,hd,vl,hu: 46% 21% 24%  3%  0%  2%  1%  2%  2%\n",
      "[libx264 @ 0x561543947780] i4 v,h,dc,ddl,ddr,vr,hd,vl,hu: 46% 32%  9%  2%  3%  2%  2%  2%  2%\n",
      "[libx264 @ 0x561543947780] i8c dc,h,v,p: 55% 19% 18%  8%\n",
      "[libx264 @ 0x561543947780] Weighted P-Frames: Y:0.0% UV:0.0%\n",
      "[libx264 @ 0x561543947780] ref P L0: 31.9%  5.0% 23.6% 25.3% 11.7%  2.5%\n",
      "[libx264 @ 0x561543947780] ref B L0: 44.3% 29.0% 21.0%  5.8%\n",
      "[libx264 @ 0x561543947780] ref B L1: 88.8% 11.2%\n",
      "[libx264 @ 0x561543947780] kb/s:618.65\n",
      "bash: line 113: p: command not found\n",
      "ffmpeg version 3.4.6-0ubuntu0.18.04.1 Copyright (c) 2000-2019 the FFmpeg developers\n",
      "  built with gcc 7 (Ubuntu 7.3.0-16ubuntu3)\n",
      "  configuration: --prefix=/usr --extra-version=0ubuntu0.18.04.1 --toolchain=hardened --libdir=/usr/lib/x86_64-linux-gnu --incdir=/usr/include/x86_64-linux-gnu --enable-gpl --disable-stripping --enable-avresample --enable-avisynth --enable-gnutls --enable-ladspa --enable-libass --enable-libbluray --enable-libbs2b --enable-libcaca --enable-libcdio --enable-libflite --enable-libfontconfig --enable-libfreetype --enable-libfribidi --enable-libgme --enable-libgsm --enable-libmp3lame --enable-libmysofa --enable-libopenjpeg --enable-libopenmpt --enable-libopus --enable-libpulse --enable-librubberband --enable-librsvg --enable-libshine --enable-libsnappy --enable-libsoxr --enable-libspeex --enable-libssh --enable-libtheora --enable-libtwolame --enable-libvorbis --enable-libvpx --enable-libwavpack --enable-libwebp --enable-libx265 --enable-libxml2 --enable-libxvid --enable-libzmq --enable-libzvbi --enable-omx --enable-openal --enable-opengl --enable-sdl2 --enable-libdc1394 --enable-libdrm --enable-libiec61883 --enable-chromaprint --enable-frei0r --enable-libopencv --enable-libx264 --enable-shared\n",
      "  libavutil      55. 78.100 / 55. 78.100\n",
      "  libavcodec     57.107.100 / 57.107.100\n",
      "  libavformat    57. 83.100 / 57. 83.100\n",
      "  libavdevice    57. 10.100 / 57. 10.100\n",
      "  libavfilter     6.107.100 /  6.107.100\n",
      "  libavresample   3.  7.  0 /  3.  7.  0\n",
      "  libswscale      4.  8.100 /  4.  8.100\n",
      "  libswresample   2.  9.100 /  2.  9.100\n",
      "  libpostproc    54.  7.100 / 54.  7.100\n",
      "Input #0, image2, from '/home/ivar/Desktop/temp/render/EPI_applyepic/e1/output_%03d.png':\n",
      "  Duration: 00:00:45.00, start: 0.000000, bitrate: N/A\n",
      "    Stream #0:0: Video: png, rgba(pc), 798x600 [SAR 3937:3937 DAR 133:100], 1 fps, 1 tbr, 1 tbn, 1 tbc\n",
      "Stream mapping:\n",
      "  Stream #0:0 -> #0:0 (png (native) -> h264 (libx264))\n",
      "Press [q] to stop, [?] for help\n",
      "[libx264 @ 0x55a0e38d88e0] using SAR=1/1\n",
      "[libx264 @ 0x55a0e38d88e0] using cpu capabilities: MMX2 SSE2Fast SSSE3 SSE4.2 AVX FMA3 BMI2 AVX2\n",
      "[libx264 @ 0x55a0e38d88e0] profile High, level 4.0\n",
      "[libx264 @ 0x55a0e38d88e0] 264 - core 152 r2854 e9a5903 - H.264/MPEG-4 AVC codec - Copyleft 2003-2017 - http://www.videolan.org/x264.html - options: cabac=1 ref=5 deblock=1:0:0 analyse=0x3:0x113 me=hex subme=8 psy=1 psy_rd=1.00:0.00 mixed_ref=1 me_range=16 chroma_me=1 trellis=2 8x8dct=1 cqm=0 deadzone=21,11 fast_pskip=1 chroma_qp_offset=-2 threads=12 lookahead_threads=2 sliced_threads=0 nr=0 decimate=1 interlaced=0 bluray_compat=0 constrained_intra=0 bframes=3 b_pyramid=2 b_adapt=1 b_bias=0 direct=3 weightb=1 open_gop=0 weightp=2 keyint=250 keyint_min=1 scenecut=40 intra_refresh=0 rc_lookahead=50 rc=crf mbtree=1 crf=1.0 qcomp=0.60 qpmin=0 qpmax=69 qpstep=4 ip_ratio=1.40 aq=1:1.00\n",
      "Output #0, mp4, to '/home/ivar/Desktop/temp/render/EPI_applyepic/e1/video.mp4':\n",
      "  Metadata:\n",
      "    encoder         : Lavf57.83.100\n",
      "    Stream #0:0: Video: h264 (libx264) (avc1 / 0x31637661), yuv420p, 798x600 [SAR 1:1 DAR 133:100], q=-1--1, 1 fps, 16384 tbn, 1 tbc\n",
      "    Metadata:\n",
      "      encoder         : Lavc57.107.100 libx264\n",
      "    Side data:\n",
      "      cpb: bitrate max/min/avg: 0/0/0 buffer size: 0 vbv_delay: -1\n",
      "frame=   45 fps= 13 q=-1.0 L00000000000000000000000000000000size=    3903kB time=00:00:42.00 bitrate= 761.3kbits/s speed=11.8x    \n",
      "video:3902kB audio:0kB subtitle:0kB other streams:0kB global headers:0kB muxing overhead: 0.034717%\n",
      "[libx264 @ 0x55a0e38d88e0] frame I:4     Avg QP: 0.72  size: 98986\n",
      "[libx264 @ 0x55a0e38d88e0] frame P:18    Avg QP: 0.93  size: 89928\n",
      "[libx264 @ 0x55a0e38d88e0] frame B:23    Avg QP: 1.34  size: 86080\n",
      "[libx264 @ 0x55a0e38d88e0] consecutive B-frames: 26.7% 13.3%  6.7% 53.3%\n",
      "[libx264 @ 0x55a0e38d88e0] mb I  I16..4: 65.6%  0.2% 34.2%\n",
      "[libx264 @ 0x55a0e38d88e0] mb P  I16..4: 19.4%  0.2% 19.6%  P16..4:  6.8%  3.1%  4.6%  0.0%  0.0%    skip:46.2%\n",
      "[libx264 @ 0x55a0e38d88e0] mb B  I16..4:  0.8%  0.1% 16.1%  B16..8:  5.6%  2.2%  5.5%  direct: 3.2%  skip:66.6%  L0:57.1% L1:33.1% BI: 9.8%\n",
      "[libx264 @ 0x55a0e38d88e0] 8x8 transform intra:0.4% inter:2.2%\n",
      "[libx264 @ 0x55a0e38d88e0] direct mvs  spatial:78.3% temporal:21.7%\n",
      "[libx264 @ 0x55a0e38d88e0] coded y,uvDC,uvAC intra: 52.5% 52.6% 52.6% inter: 13.1% 16.3% 16.3%\n",
      "[libx264 @ 0x55a0e38d88e0] i16 v,h,dc,p: 91%  7%  2%  0%\n",
      "[libx264 @ 0x55a0e38d88e0] i8 v,h,dc,ddl,ddr,vr,hd,vl,hu: 51% 19% 19%  2%  2%  3%  1%  1%  1%\n",
      "[libx264 @ 0x55a0e38d88e0] i4 v,h,dc,ddl,ddr,vr,hd,vl,hu: 45% 32% 10%  2%  3%  2%  2%  2%  2%\n",
      "[libx264 @ 0x55a0e38d88e0] i8c dc,h,v,p: 67% 15% 13%  5%\n",
      "[libx264 @ 0x55a0e38d88e0] Weighted P-Frames: Y:22.2% UV:16.7%\n",
      "[libx264 @ 0x55a0e38d88e0] ref P L0: 25.9%  2.7% 24.8% 18.6% 20.7%  5.5%  1.8%\n",
      "[libx264 @ 0x55a0e38d88e0] ref B L0: 53.2% 31.7% 13.5%  1.5%\n",
      "[libx264 @ 0x55a0e38d88e0] ref B L1: 85.6% 14.4%\n",
      "[libx264 @ 0x55a0e38d88e0] kb/s:710.13\n",
      "bash: line 116: ep: command not found\n",
      "ffmpeg version 3.4.6-0ubuntu0.18.04.1 Copyright (c) 2000-2019 the FFmpeg developers\n",
      "  built with gcc 7 (Ubuntu 7.3.0-16ubuntu3)\n",
      "  configuration: --prefix=/usr --extra-version=0ubuntu0.18.04.1 --toolchain=hardened --libdir=/usr/lib/x86_64-linux-gnu --incdir=/usr/include/x86_64-linux-gnu --enable-gpl --disable-stripping --enable-avresample --enable-avisynth --enable-gnutls --enable-ladspa --enable-libass --enable-libbluray --enable-libbs2b --enable-libcaca --enable-libcdio --enable-libflite --enable-libfontconfig --enable-libfreetype --enable-libfribidi --enable-libgme --enable-libgsm --enable-libmp3lame --enable-libmysofa --enable-libopenjpeg --enable-libopenmpt --enable-libopus --enable-libpulse --enable-librubberband --enable-librsvg --enable-libshine --enable-libsnappy --enable-libsoxr --enable-libspeex --enable-libssh --enable-libtheora --enable-libtwolame --enable-libvorbis --enable-libvpx --enable-libwavpack --enable-libwebp --enable-libx265 --enable-libxml2 --enable-libxvid --enable-libzmq --enable-libzvbi --enable-omx --enable-openal --enable-opengl --enable-sdl2 --enable-libdc1394 --enable-libdrm --enable-libiec61883 --enable-chromaprint --enable-frei0r --enable-libopencv --enable-libx264 --enable-shared\n",
      "  libavutil      55. 78.100 / 55. 78.100\n",
      "  libavcodec     57.107.100 / 57.107.100\n",
      "  libavformat    57. 83.100 / 57. 83.100\n",
      "  libavdevice    57. 10.100 / 57. 10.100\n",
      "  libavfilter     6.107.100 /  6.107.100\n",
      "  libavresample   3.  7.  0 /  3.  7.  0\n",
      "  libswscale      4.  8.100 /  4.  8.100\n",
      "  libswresample   2.  9.100 /  2.  9.100\n",
      "  libpostproc    54.  7.100 / 54.  7.100\n",
      "Input #0, image2, from '/home/ivar/Desktop/temp/render/EPI_applyepic/e2/output_%03d.png':\n",
      "  Duration: 00:00:45.00, start: 0.000000, bitrate: N/A\n",
      "    Stream #0:0: Video: png, rgba(pc), 798x600 [SAR 3937:3937 DAR 133:100], 1 fps, 1 tbr, 1 tbn, 1 tbc\n",
      "Stream mapping:\n",
      "  Stream #0:0 -> #0:0 (png (native) -> h264 (libx264))\n",
      "Press [q] to stop, [?] for help\n",
      "[libx264 @ 0x5602b4f7a780] using SAR=1/1\n",
      "[libx264 @ 0x5602b4f7a780] using cpu capabilities: MMX2 SSE2Fast SSSE3 SSE4.2 AVX FMA3 BMI2 AVX2\n",
      "[libx264 @ 0x5602b4f7a780] profile High, level 4.0\n",
      "[libx264 @ 0x5602b4f7a780] 264 - core 152 r2854 e9a5903 - H.264/MPEG-4 AVC codec - Copyleft 2003-2017 - http://www.videolan.org/x264.html - options: cabac=1 ref=5 deblock=1:0:0 analyse=0x3:0x113 me=hex subme=8 psy=1 psy_rd=1.00:0.00 mixed_ref=1 me_range=16 chroma_me=1 trellis=2 8x8dct=1 cqm=0 deadzone=21,11 fast_pskip=1 chroma_qp_offset=-2 threads=12 lookahead_threads=2 sliced_threads=0 nr=0 decimate=1 interlaced=0 bluray_compat=0 constrained_intra=0 bframes=3 b_pyramid=2 b_adapt=1 b_bias=0 direct=3 weightb=1 open_gop=0 weightp=2 keyint=250 keyint_min=1 scenecut=40 intra_refresh=0 rc_lookahead=50 rc=crf mbtree=1 crf=1.0 qcomp=0.60 qpmin=0 qpmax=69 qpstep=4 ip_ratio=1.40 aq=1:1.00\n",
      "Output #0, mp4, to '/home/ivar/Desktop/temp/render/EPI_applyepic/e2/video.mp4':\n",
      "  Metadata:\n",
      "    encoder         : Lavf57.83.100\n",
      "    Stream #0:0: Video: h264 (libx264) (avc1 / 0x31637661), yuv420p, 798x600 [SAR 1:1 DAR 133:100], q=-1--1, 1 fps, 16384 tbn, 1 tbc\n",
      "    Metadata:\n",
      "      encoder         : Lavc57.107.100 libx264\n",
      "    Side data:\n",
      "      cpb: bitrate max/min/avg: 0/0/0 buffer size: 0 vbv_delay: -1\n",
      "frame=   45 fps= 17 q=-1.0 Lsize=    3408kB time=00:00:42.00 bitrate= 664.7kbits/s speed=15.9x    \n",
      "video:3407kB audio:0kB subtitle:0kB other streams:0kB global headers:0kB muxing overhead: 0.040105%\n",
      "[libx264 @ 0x5602b4f7a780] frame I:2     Avg QP: 0.25  size: 87256\n",
      "[libx264 @ 0x5602b4f7a780] frame P:16    Avg QP: 0.61  size: 78405\n",
      "[libx264 @ 0x5602b4f7a780] frame B:27    Avg QP: 1.07  size: 76247\n",
      "[libx264 @ 0x5602b4f7a780] consecutive B-frames: 13.3%  8.9% 33.3% 44.4%\n",
      "[libx264 @ 0x5602b4f7a780] mb I  I16..4: 65.5%  0.3% 34.3%\n",
      "[libx264 @ 0x5602b4f7a780] mb P  I16..4: 11.3%  0.2% 16.7%  P16..4:  9.2%  3.8%  4.8%  0.0%  0.0%    skip:54.1%\n",
      "[libx264 @ 0x5602b4f7a780] mb B  I16..4:  0.9%  0.1% 13.1%  B16..8:  7.4%  3.4%  6.0%  direct: 3.9%  skip:65.1%  L0:62.1% L1:26.9% BI:11.0%\n",
      "[libx264 @ 0x5602b4f7a780] 8x8 transform intra:0.7% inter:2.9%\n",
      "[libx264 @ 0x5602b4f7a780] direct mvs  spatial:77.8% temporal:22.2%\n",
      "[libx264 @ 0x5602b4f7a780] coded y,uvDC,uvAC intra: 63.1% 63.4% 63.3% inter: 16.3% 19.4% 19.4%\n",
      "[libx264 @ 0x5602b4f7a780] i16 v,h,dc,p: 87%  9%  4%  0%\n",
      "[libx264 @ 0x5602b4f7a780] i8 v,h,dc,ddl,ddr,vr,hd,vl,hu: 48% 21% 19%  2%  2%  3%  1%  2%  2%\n",
      "[libx264 @ 0x5602b4f7a780] i4 v,h,dc,ddl,ddr,vr,hd,vl,hu: 46% 32% 10%  2%  3%  2%  2%  2%  2%\n",
      "[libx264 @ 0x5602b4f7a780] i8c dc,h,v,p: 57% 18% 17%  7%\n",
      "[libx264 @ 0x5602b4f7a780] Weighted P-Frames: Y:6.2% UV:6.2%\n",
      "[libx264 @ 0x5602b4f7a780] ref P L0: 23.2%  4.5% 26.3% 29.3%  8.9%  7.0%  0.7%\n",
      "[libx264 @ 0x5602b4f7a780] ref B L0: 41.9% 28.4% 23.9%  5.9%\n",
      "[libx264 @ 0x5602b4f7a780] ref B L1: 89.6% 10.4%\n",
      "[libx264 @ 0x5602b4f7a780] kb/s:620.03\n"
     ]
    }
   ],
   "source": [
    "%%bash -s \"{\" \".join(raw_cbv_files_e1)}\" \"{\" \".join(topup_cbv_files_e1)}\" \"{\" \".join(epic_cbv_files_e1)}\" \"{\" \".join(raw_cbv_files_e2)}\" \"{\" \".join(topup_cbv_files_e2)}\" \"{\" \".join(epic_cbv_files_e2)}\" \"{\" \".join(raw_label_files_e1)}\" \"{\" \".join(topup_label_files_e1)}\" \"{\" \".join(epic_label_files_e1)}\" \"{\" \".join(raw_label_files_e2)}\" \"{\" \".join(topup_label_files_e2)}\" \"{\" \".join(epic_label_files_e2)}\"\n",
    "IFS=' ' read -r -a raw_cbv_files_e1 <<< \"$1\"\n",
    "IFS=' ' read -r -a topup_cbv_files_e1 <<< \"$2\"\n",
    "IFS=' ' read -r -a epic_cbv_files_e1 <<< \"$3\"\n",
    "IFS=' ' read -r -a raw_cbv_files_e2 <<< \"$4\"\n",
    "IFS=' ' read -r -a topup_cbv_files_e2 <<< \"$5\"\n",
    "IFS=' ' read -r -a epic_cbv_files_e2 <<< \"$6\"\n",
    "IFS=' ' read -r -a raw_label_files_e1 <<< \"$7\"\n",
    "IFS=' ' read -r -a topup_label_files_e1 <<< \"$8\"\n",
    "IFS=' ' read -r -a epic_label_files_e1 <<< \"$9\"\n",
    "IFS=' ' read -r -a raw_label_files_e2 <<< \"${10}\"\n",
    "IFS=' ' read -r -a topup_label_files_e2 <<< \"${11}\"\n",
    "IFS=' ' read -r -a epic_label_files_e2 <<< \"${12}\"\n",
    "render() {\n",
    "    local -n _cbv_files=$1\n",
    "    local -n _label_files=$2\n",
    "    local -n _render_dir=$3\n",
    "    \n",
    "    # Remove existing render directory.\n",
    "    if [ -d \"$_render_dir\" ]; then rm -rd \"$_render_dir\"; fi\n",
    "    \n",
    "    mkdir -p \"$_render_dir\"\n",
    "    \n",
    "    for index in \"${!_cbv_files[@]}\"\n",
    "    do\n",
    "        cbv_file=\"${_cbv_files[index]}\"\n",
    "        label_file=\"${_label_files[index]}\"\n",
    "        \n",
    "        cbv_file_name=\"$(basename $cbv_file)\"\n",
    "        label_file_name=\"$(basename $label_file)\"\n",
    "        \n",
    "        render_command='fsleyes \n",
    "            render \n",
    "            --outfile \"'$_render_dir'/'output_$(printf \"%03d\\n\" $index)'\" \n",
    "            --scene ortho \n",
    "            --worldLoc 9.918212890625e-05 -18.000099182128906 7.999900817871094 \n",
    "            --displaySpace \n",
    "            '$cbv_file' \n",
    "            --xcentre -0.00000 -0.11019 \n",
    "            --ycentre -0.00000 -0.11019 \n",
    "            --zcentre -0.00000 -0.00000 \n",
    "            --xzoom 803.0573770888577 \n",
    "            --yzoom 809.4712464952298 \n",
    "            --zzoom 803.057377088858 \n",
    "            --hideLabels \n",
    "            --labelSize 14 \n",
    "            --layout horizontal \n",
    "            --hideCursor \n",
    "            --bgColour 0.0 0.0 0.0 \n",
    "            --fgColour 1.0 1.0 1.0 \n",
    "            --cursorColour 0.0 1.0 0.0 \n",
    "            --colourBarLocation top \n",
    "            --colourBarLabelSide top-left \n",
    "            --performance 3 \n",
    "            '$cbv_file' \n",
    "            --name '$cbv_file_name' \n",
    "            --overlayType volume \n",
    "            --alpha 100.0 \n",
    "            --brightness 64.94720130619707 \n",
    "            --contrast 79.89440261239416 \n",
    "            --cmap hot \n",
    "            --negativeCmap greyscale \n",
    "            --displayRange 0.0 12.0 \n",
    "            --clippingRange 0.0 30.140860195159913 \n",
    "            --gamma 0.0 \n",
    "            --cmapResolution 256 \n",
    "            --interpolation none \n",
    "            --numSteps 100 \n",
    "            --blendFactor 0.1 \n",
    "            --smoothing 0 \n",
    "            --resolution 100 \n",
    "            --numInnerSteps 10 \n",
    "            --clipMode intersection \n",
    "            --volume 0 \n",
    "            '$label_file' \n",
    "            --name '$label_file_name' \n",
    "            --overlayType volume \n",
    "            --alpha 37.33333333798995 \n",
    "            --brightness 50.0 \n",
    "            --contrast 50.0 \n",
    "            --cmap greyscale \n",
    "            --negativeCmap greyscale \n",
    "            --displayRange 0.0 207.0 \n",
    "            --clippingRange 0.0 209.07 \n",
    "            --gamma 0.0 \n",
    "            --cmapResolution 256 \n",
    "            --interpolation none \n",
    "            --numSteps 100 \n",
    "            --blendFactor 0.1 \n",
    "            --smoothing 0 \n",
    "            --resolution 100 \n",
    "            --numInnerSteps 10 \n",
    "            --clipMode intersection \n",
    "            --volume 0'\n",
    "        echo $render_command >> \"$_render_dir/commands.txt\"\n",
    "        #echo $render_command\n",
    "        eval $render_command\n",
    "        echo \"--Finished rendering volume $index to .png--\"\n",
    "    done\n",
    "    ffmpeg -framerate 1 -i \"$_render_dir\"/output_%03d.png -vf \"pad=ceil(iw/2)*2:ceil(ih/2)*2\" -c:v libx264 -preset slow -profile:v high -level:v 4.0 -pix_fmt yuv420p -crf 1 \"$_render_dir\"/video.mp4\n",
    "    echo \"--Finished rendering pngs to video--\"\n",
    "}\n",
    "render_dir_raw_e1=\"/home/ivar/Desktop/temp/render/EPI_raw_DSC/e1\"\n",
    "render raw_cbv_files_e1 raw_label_files_e1 render_dir_raw_e1\n",
    "sleep 1 # Sleep 1 second; this was necessary otherwise the next call of render() function did seem to get emtpy render dir argument...\n",
    "render_dir_raw_e2=\"/home/ivar/Desktop/temp/render/EPI_raw_DSC/e2\"\n",
    "render raw_cbv_files_e2 raw_label_files_e2 render_dir_raw_e2\n",
    "sleep 1\n",
    "render_dir_topup_e1=\"/home/ivar/Desktop/temp/render/EPI_applytopup/e1\"\n",
    "render topup_cbv_files_e1 topup_label_files_e1 render_dir_topup_e1\n",
    "sleep 1\n",
    "render_dir_topup_e2=\"/home/ivar/Desktop/temp/render/EPI_applytopup/e2\"\n",
    "render topup_cbv_files_e2 topup_label_files_e2 render_dir_topup_e2\n",
    "sleep 1\n",
    "render_dir_epic_e1=\"/home/ivar/Desktop/temp/render/EPI_applyepic/e1\"\n",
    "render epic_cbv_files_e1 epic_label_files_e1 render_dir_epic_e1\n",
    "sleep 1\n",
    "render_dir_epic_e2=\"/home/ivar/Desktop/temp/render/EPI_applyepic/e2\"\n",
    "render epic_cbv_files_e2 epic_label_files_e2 render_dir_epic_e2"
   ]
  }
 ],
 "metadata": {
  "kernelspec": {
   "display_name": "Python 3",
   "language": "python",
   "name": "python3"
  },
  "language_info": {
   "codemirror_mode": {
    "name": "ipython",
    "version": 3
   },
   "file_extension": ".py",
   "mimetype": "text/x-python",
   "name": "python",
   "nbconvert_exporter": "python",
   "pygments_lexer": "ipython3",
   "version": "3.7.3"
  }
 },
 "nbformat": 4,
 "nbformat_minor": 4
}
